<svg width="232" height="73" viewBox="0 0 232 73" fill="none" xmlns="http://www.w3.org/2000/svg">
<g filter="url(#filter0_d_32_65)">
<path d="M106.205 10.2649C106.386 9.53737 106.477 9.17359 106.749 8.96179C107.02 8.75 107.395 8.75 108.145 8.75H145.855C146.605 8.75 146.98 8.75 147.251 8.96179C147.523 9.17359 147.614 9.53737 147.795 10.2649L152.629 29.5983C152.915 30.7422 153.058 31.3142 152.757 31.6987C152.457 32.0833 151.868 32.0833 150.688 32.0833H144.972C143.354 32.0833 142.544 32.0833 141.985 31.6094C141.425 31.1354 141.292 30.3373 141.026 28.7409L140.322 24.517C140.247 24.0667 140.21 23.8416 140.125 23.8416C140.04 23.8416 140.003 24.0667 139.928 24.517L139.224 28.7409C138.958 30.3373 138.825 31.1354 138.265 31.6094C137.706 32.0833 136.896 32.0833 135.278 32.0833H131.847C130.229 32.0833 129.419 32.0833 128.86 31.6094C128.3 31.1354 128.167 30.3373 127.901 28.7409L127.197 24.517C127.122 24.0667 127.085 23.8416 127 23.8416C126.915 23.8416 126.878 24.0667 126.803 24.517L126.099 28.7409C125.833 30.3373 125.7 31.1354 125.14 31.6094C124.581 32.0833 123.772 32.0833 122.153 32.0833H118.722C117.104 32.0833 116.294 32.0833 115.735 31.6094C115.175 31.1354 115.042 30.3373 114.776 28.7409L114.072 24.517C113.997 24.0667 113.96 23.8416 113.875 23.8416C113.79 23.8416 113.753 24.0667 113.678 24.517L112.974 28.7409C112.708 30.3373 112.575 31.1354 112.015 31.6094C111.456 32.0833 110.647 32.0833 109.028 32.0833H103.312C102.132 32.0833 101.543 32.0833 101.243 31.6987C100.942 31.3142 101.085 30.7422 101.371 29.5983L106.205 10.2649Z" fill="white"/>
<path fill-rule="evenodd" clip-rule="evenodd" d="M106.583 33.5834V62.1668C106.583 63.1096 106.583 63.581 106.876 63.8739C107.169 64.1668 107.641 64.1668 108.583 64.1668H121.167V50.5834C121.167 50.0311 121.614 49.5834 122.167 49.5834H131.833C132.386 49.5834 132.833 50.0311 132.833 50.5834V64.1668H145.417C146.36 64.1668 146.831 64.1668 147.124 63.8739C147.417 63.581 147.417 63.1096 147.417 62.1668V33.5834H144.972L144.892 33.5834C144.152 33.5835 143.464 33.5836 142.895 33.5126C142.265 33.4339 141.601 33.2505 141.015 32.754C140.582 32.3868 140.31 31.9497 140.125 31.5006C139.94 31.9497 139.668 32.3868 139.235 32.754C138.649 33.2505 137.985 33.4339 137.355 33.5126C136.786 33.5836 136.098 33.5835 135.358 33.5834L135.278 33.5834H131.847L131.767 33.5834C131.027 33.5835 130.339 33.5836 129.77 33.5126C129.14 33.4339 128.476 33.2505 127.89 32.754C127.457 32.3868 127.185 31.9497 127 31.5006C126.815 31.9497 126.543 32.3868 126.11 32.754C125.524 33.2505 124.86 33.4339 124.23 33.5126C123.661 33.5836 122.973 33.5835 122.233 33.5834L122.153 33.5834H118.722L118.642 33.5834C117.902 33.5835 117.214 33.5836 116.645 33.5126C116.015 33.4339 115.351 33.2505 114.765 32.754C114.332 32.3868 114.06 31.9497 113.875 31.5006C113.69 31.9497 113.418 32.3868 112.985 32.754C112.399 33.2505 111.735 33.4339 111.105 33.5126C110.536 33.5836 109.848 33.5835 109.108 33.5834L109.028 33.5834H106.583ZM106.729 30.5834H109.028C109.876 30.5834 110.373 30.5807 110.733 30.5357C110.897 30.5153 110.98 30.4913 111.019 30.477C111.036 30.4704 111.044 30.4662 111.045 30.4658L111.046 30.4649L111.047 30.4639C111.047 30.4632 111.053 30.4567 111.062 30.4404C111.082 30.4045 111.12 30.3261 111.167 30.1681C111.239 29.926 111.302 29.6152 111.38 29.1667H110.583C108.698 29.1667 107.755 29.1667 107.169 29.7525C106.952 29.9702 106.815 30.2371 106.729 30.5834ZM116.37 29.1667C116.448 29.6152 116.511 29.926 116.583 30.1681C116.63 30.3261 116.668 30.4045 116.688 30.4404C116.698 30.4567 116.703 30.4632 116.703 30.4639L116.704 30.4649L116.706 30.4658C116.706 30.4662 116.714 30.4704 116.731 30.477C116.77 30.4913 116.854 30.5153 117.017 30.5357C117.377 30.5807 117.874 30.5834 118.722 30.5834H122.153C123.001 30.5834 123.498 30.5807 123.858 30.5357C124.022 30.5153 124.105 30.4913 124.144 30.477C124.161 30.4704 124.169 30.4662 124.17 30.4658L124.171 30.4649L124.172 30.4639C124.172 30.4632 124.178 30.4567 124.187 30.4404C124.207 30.4045 124.245 30.3261 124.292 30.1681C124.364 29.926 124.427 29.6152 124.505 29.1667H116.37ZM129.495 29.1667C129.573 29.6152 129.636 29.926 129.708 30.1681C129.755 30.3261 129.793 30.4045 129.813 30.4404C129.819 30.4512 129.824 30.4578 129.826 30.4611L129.828 30.4639L129.829 30.4649L129.831 30.4658C129.831 30.4662 129.839 30.4704 129.856 30.477C129.895 30.4913 129.979 30.5153 130.142 30.5357C130.502 30.5807 130.999 30.5834 131.847 30.5834H135.278C136.126 30.5834 136.623 30.5807 136.983 30.5357C137.147 30.5153 137.23 30.4913 137.269 30.477C137.286 30.4704 137.294 30.4662 137.295 30.4658L137.296 30.4649L137.297 30.4639C137.297 30.4632 137.303 30.4567 137.312 30.4404C137.332 30.4045 137.37 30.3261 137.417 30.1681C137.489 29.926 137.552 29.6152 137.63 29.1667H129.495ZM142.62 29.1667H143.417C145.302 29.1667 146.245 29.1667 146.831 29.7525C147.049 29.9702 147.185 30.2371 147.271 30.5834H144.972C144.124 30.5834 143.627 30.5807 143.267 30.5357C143.104 30.5153 143.02 30.4913 142.981 30.477C142.964 30.4704 142.956 30.4662 142.956 30.4658L142.954 30.4649L142.953 30.4639C142.953 30.4632 142.948 30.4567 142.938 30.4404C142.918 30.4045 142.88 30.3261 142.833 30.1681C142.761 29.926 142.698 29.6152 142.62 29.1667ZM123.167 51.5834V64.1668H130.833V51.5834H123.167Z" fill="white"/>
</g>
<path d="M17.1211 43.5098H22.377C22.2715 45.2324 21.7969 46.7617 20.9531 48.0977C20.1211 49.4336 18.9551 50.4766 17.4551 51.2266C15.9668 51.9766 14.1738 52.3516 12.0762 52.3516C10.4355 52.3516 8.96484 52.0703 7.66406 51.5078C6.36328 50.9336 5.25 50.1133 4.32422 49.0469C3.41016 47.9805 2.71289 46.6914 2.23242 45.1797C1.75195 43.668 1.51172 41.9746 1.51172 40.0996V38.3242C1.51172 36.4492 1.75781 34.7559 2.25 33.2441C2.75391 31.7207 3.46875 30.4258 4.39453 29.3594C5.33203 28.293 6.45117 27.4727 7.75195 26.8984C9.05273 26.3242 10.5059 26.0371 12.1113 26.0371C14.2441 26.0371 16.043 26.4238 17.5078 27.1973C18.9844 27.9707 20.127 29.0371 20.9355 30.3965C21.7559 31.7559 22.248 33.3027 22.4121 35.0371H17.1387C17.0801 34.0059 16.875 33.1328 16.5234 32.418C16.1719 31.6914 15.6387 31.1465 14.9238 30.7832C14.2207 30.4082 13.2832 30.2207 12.1113 30.2207C11.2324 30.2207 10.4648 30.3848 9.80859 30.7129C9.15234 31.041 8.60156 31.5391 8.15625 32.207C7.71094 32.875 7.37695 33.7188 7.1543 34.7383C6.94336 35.7461 6.83789 36.9297 6.83789 38.2891V40.0996C6.83789 41.4238 6.9375 42.5898 7.13672 43.5977C7.33594 44.5938 7.64062 45.4375 8.05078 46.1289C8.47266 46.8086 9.01172 47.3242 9.66797 47.6758C10.3359 48.0156 11.1387 48.1855 12.0762 48.1855C13.1777 48.1855 14.0859 48.0098 14.8008 47.6582C15.5156 47.3066 16.0605 46.7852 16.4355 46.0938C16.8223 45.4023 17.0508 44.541 17.1211 43.5098ZM30.5859 37.1289V52H25.5234V32.9805H30.2871L30.5859 37.1289ZM36.3164 32.8574L36.2285 37.5508C35.9824 37.5156 35.6836 37.4863 35.332 37.4629C34.9922 37.4277 34.6816 37.4102 34.4004 37.4102C33.6855 37.4102 33.0645 37.5039 32.5371 37.6914C32.0215 37.8672 31.5879 38.1309 31.2363 38.4824C30.8965 38.834 30.6387 39.2617 30.4629 39.7656C30.2988 40.2695 30.2051 40.8438 30.1816 41.4883L29.1621 41.1719C29.1621 39.9414 29.2852 38.8105 29.5312 37.7793C29.7773 36.7363 30.1348 35.8281 30.6035 35.0547C31.084 34.2812 31.6699 33.6836 32.3613 33.2617C33.0527 32.8398 33.8438 32.6289 34.7344 32.6289C35.0156 32.6289 35.3027 32.6523 35.5957 32.6992C35.8887 32.7344 36.1289 32.7871 36.3164 32.8574ZM48.375 47.7109V39.2383C48.375 38.6289 48.2754 38.1074 48.0762 37.6738C47.877 37.2285 47.5664 36.8828 47.1445 36.6367C46.7344 36.3906 46.2012 36.2676 45.5449 36.2676C44.9824 36.2676 44.4961 36.3672 44.0859 36.5664C43.6758 36.7539 43.3594 37.0293 43.1367 37.3926C42.9141 37.7441 42.8027 38.1602 42.8027 38.6406H37.7402C37.7402 37.832 37.9277 37.0645 38.3027 36.3379C38.6777 35.6113 39.2227 34.9727 39.9375 34.4219C40.6523 33.8594 41.502 33.4199 42.4863 33.1035C43.4824 32.7871 44.5957 32.6289 45.8262 32.6289C47.3027 32.6289 48.6152 32.875 49.7637 33.3672C50.9121 33.8594 51.8145 34.5977 52.4707 35.582C53.1387 36.5664 53.4727 37.7969 53.4727 39.2734V47.4121C53.4727 48.4551 53.5371 49.3105 53.666 49.9785C53.7949 50.6348 53.9824 51.209 54.2285 51.7012V52H49.1133C48.8672 51.4844 48.6797 50.8398 48.5508 50.0664C48.4336 49.2812 48.375 48.4961 48.375 47.7109ZM49.043 40.416L49.0781 43.2812H46.248C45.5801 43.2812 45 43.3574 44.5078 43.5098C44.0156 43.6621 43.6113 43.8789 43.2949 44.1602C42.9785 44.4297 42.7441 44.7461 42.5918 45.1094C42.4512 45.4727 42.3809 45.8711 42.3809 46.3047C42.3809 46.7383 42.4805 47.1309 42.6797 47.4824C42.8789 47.8223 43.166 48.0918 43.541 48.291C43.916 48.4785 44.3555 48.5723 44.8594 48.5723C45.6211 48.5723 46.2832 48.4199 46.8457 48.1152C47.4082 47.8105 47.8418 47.4355 48.1465 46.9902C48.4629 46.5449 48.627 46.123 48.6387 45.7246L49.9746 47.8691C49.7871 48.3496 49.5293 48.8477 49.2012 49.3633C48.8848 49.8789 48.4805 50.3652 47.9883 50.8223C47.4961 51.2676 46.9043 51.6367 46.2129 51.9297C45.5215 52.2109 44.7012 52.3516 43.752 52.3516C42.5449 52.3516 41.4492 52.1113 40.4648 51.6309C39.4922 51.1387 38.7188 50.4648 38.1445 49.6094C37.582 48.7422 37.3008 47.7578 37.3008 46.6562C37.3008 45.6602 37.4883 44.7754 37.8633 44.002C38.2383 43.2285 38.7891 42.5781 39.5156 42.0508C40.2539 41.5117 41.1738 41.1074 42.2754 40.8379C43.377 40.5566 44.6543 40.416 46.1074 40.416H49.043ZM72.5098 48.0449V52H58.0605V48.0449H72.5098ZM72.2285 35.8984L60.0996 52H56.707V48.9941L68.7832 32.9805H72.2285V35.8984ZM70.4355 32.9805V36.9531H56.9883V32.9805H70.4355ZM81.334 49.8555L86.3789 32.9805H91.8105L84.1641 54.8652C84 55.3457 83.7773 55.8613 83.4961 56.4121C83.2266 56.9629 82.8574 57.4844 82.3887 57.9766C81.9316 58.4805 81.3516 58.8906 80.6484 59.207C79.957 59.5234 79.1074 59.6816 78.0996 59.6816C77.6191 59.6816 77.2266 59.6523 76.9219 59.5938C76.6172 59.5352 76.2539 59.4531 75.832 59.3477V55.6387C75.9609 55.6387 76.0957 55.6387 76.2363 55.6387C76.377 55.6504 76.5117 55.6562 76.6406 55.6562C77.3086 55.6562 77.8535 55.5801 78.2754 55.4277C78.6973 55.2754 79.0371 55.041 79.2949 54.7246C79.5527 54.4199 79.7578 54.0215 79.9102 53.5293L81.334 49.8555ZM79.2246 32.9805L83.3555 46.7617L84.0762 52.123L80.6309 52.4922L73.793 32.9805H79.2246Z" fill="white"/>
<path d="M174.305 40.7676H167.73L167.695 37.1465H173.215C174.188 37.1465 174.984 37.0234 175.605 36.7773C176.227 36.5195 176.689 36.1504 176.994 35.6699C177.311 35.1777 177.469 34.5801 177.469 33.877C177.469 33.0801 177.316 32.4355 177.012 31.9434C176.719 31.4512 176.256 31.0938 175.623 30.8711C175.002 30.6484 174.199 30.5371 173.215 30.5371H169.559V52H164.285V26.4062H173.215C174.703 26.4062 176.033 26.5469 177.205 26.8281C178.389 27.1094 179.391 27.5371 180.211 28.1113C181.031 28.6855 181.658 29.4121 182.092 30.291C182.525 31.1582 182.742 32.1895 182.742 33.3848C182.742 34.4395 182.502 35.4121 182.021 36.3027C181.553 37.1934 180.809 37.9199 179.789 38.4824C178.781 39.0449 177.463 39.3555 175.834 39.4141L174.305 40.7676ZM174.076 52H166.289L168.346 47.8867H174.076C175.002 47.8867 175.758 47.7402 176.344 47.4473C176.93 47.1426 177.363 46.7324 177.645 46.2168C177.926 45.7012 178.066 45.1094 178.066 44.4414C178.066 43.6914 177.938 43.041 177.68 42.4902C177.434 41.9395 177.035 41.5176 176.484 41.2246C175.934 40.9199 175.207 40.7676 174.305 40.7676H169.225L169.26 37.1465H175.588L176.801 38.5703C178.359 38.5469 179.613 38.8223 180.562 39.3965C181.523 39.959 182.221 40.6914 182.654 41.5938C183.1 42.4961 183.322 43.4629 183.322 44.4941C183.322 46.1348 182.965 47.5176 182.25 48.6426C181.535 49.7559 180.486 50.5938 179.104 51.1562C177.732 51.7188 176.057 52 174.076 52ZM192.305 32.9805V52H187.225V32.9805H192.305ZM186.908 28.0234C186.908 27.2852 187.166 26.6758 187.682 26.1953C188.197 25.7148 188.889 25.4746 189.756 25.4746C190.611 25.4746 191.297 25.7148 191.812 26.1953C192.34 26.6758 192.604 27.2852 192.604 28.0234C192.604 28.7617 192.34 29.3711 191.812 29.8516C191.297 30.332 190.611 30.5723 189.756 30.5723C188.889 30.5723 188.197 30.332 187.682 29.8516C187.166 29.3711 186.908 28.7617 186.908 28.0234ZM201.832 25V52H196.752V25H201.832ZM211.359 25V52H206.279V25H211.359ZM230.678 48.0449V52H216.229V48.0449H230.678ZM230.396 35.8984L218.268 52H214.875V48.9941L226.951 32.9805H230.396V35.8984ZM228.604 32.9805V36.9531H215.156V32.9805H228.604Z" fill="white"/>
<defs>
<filter id="filter0_d_32_65" x="88" y="0" width="78" height="78" filterUnits="userSpaceOnUse" color-interpolation-filters="sRGB">
<feFlood flood-opacity="0" result="BackgroundImageFix"/>
<feColorMatrix in="SourceAlpha" type="matrix" values="0 0 0 0 0 0 0 0 0 0 0 0 0 0 0 0 0 0 127 0" result="hardAlpha"/>
<feOffset dy="4"/>
<feGaussianBlur stdDeviation="2"/>
<feComposite in2="hardAlpha" operator="out"/>
<feColorMatrix type="matrix" values="0 0 0 0 0 0 0 0 0 0 0 0 0 0 0 0 0 0 0.25 0"/>
<feBlend mode="normal" in2="BackgroundImageFix" result="effect1_dropShadow_32_65"/>
<feBlend mode="normal" in="SourceGraphic" in2="effect1_dropShadow_32_65" result="shape"/>
</filter>
</defs>
</svg>
