<svg width="449" height="800" viewBox="0 0 449 800" fill="none" xmlns="http://www.w3.org/2000/svg">
<g clip-path="url(#clip0_5_291)">
<path d="M328.411 0H77.3296C38.2788 0 6.62195 31.6569 6.62195 70.7076V644.455C6.62195 683.506 38.2788 715.163 77.3296 715.163H328.411C367.462 715.163 399.119 683.506 399.119 644.455V70.7076C399.119 31.6569 367.462 0 328.411 0Z" fill="#3F3D56"/>
<path d="M392.497 70.7124V644.456C392.478 661.447 385.719 677.737 373.705 689.751C361.69 701.766 345.401 708.524 328.41 708.544H77.3321C60.341 708.524 44.0515 701.766 32.037 689.751C20.0224 677.737 13.264 661.447 13.2444 644.456V70.7124C13.2641 53.7213 20.0224 37.4318 32.037 25.4173C44.0515 13.4028 60.341 6.64436 77.3321 6.62469H110.165V17.9662C110.165 23.1007 112.205 28.0248 115.835 31.6554C119.466 35.286 124.39 37.3258 129.525 37.3261C172.031 50.1664 221.926 48.1622 276.217 37.3261C281.352 37.3258 286.276 35.286 289.906 31.6554C293.537 28.0248 295.577 23.1007 295.577 17.9662V6.62469H328.41C345.401 6.64437 361.69 13.4028 373.705 25.4173C385.719 37.4318 392.478 53.7213 392.497 70.7124Z" fill="white"/>
<path d="M4.81591 145.079C3.5391 145.078 2.315 144.57 1.41216 143.667C0.509319 142.764 0.00146262 141.54 0 140.263V130.632C0 129.354 0.507386 128.129 1.41054 127.226C2.3137 126.323 3.53865 125.816 4.81591 125.816C6.09317 125.816 7.31812 126.323 8.22128 127.226C9.12444 128.129 9.63182 129.354 9.63182 130.632V140.263C9.63036 141.54 9.12251 142.764 8.21966 143.667C7.31682 144.57 6.09272 145.078 4.81591 145.079V145.079Z" fill="#3F3D56"/>
<path d="M4.81591 194.468C3.5391 194.467 2.315 193.959 1.41216 193.056C0.509319 192.153 0.00145944 190.929 0 189.652V163.139C0 161.862 0.507386 160.637 1.41054 159.734C2.3137 158.831 3.53865 158.323 4.81591 158.323C6.09317 158.323 7.31812 158.831 8.22128 159.734C9.12444 160.637 9.63182 161.862 9.63182 163.139V189.652C9.63037 190.929 9.12251 192.153 8.21966 193.056C7.31682 193.959 6.09272 194.467 4.81591 194.468V194.468Z" fill="#3F3D56"/>
<path d="M4.81591 234.174C3.5391 234.172 2.315 233.664 1.41216 232.762C0.509319 231.859 0.00145944 230.635 0 229.358V202.844C0 201.567 0.507386 200.342 1.41054 199.439C2.3137 198.536 3.53865 198.029 4.81591 198.029C6.09317 198.029 7.31812 198.536 8.22128 199.439C9.12444 200.342 9.63182 201.567 9.63182 202.844V229.358C9.63036 230.635 9.12251 231.859 8.21966 232.762C7.31682 233.664 6.09272 234.172 4.81591 234.174V234.174Z" fill="#3F3D56"/>
<path d="M399.722 138.183C398.447 138.182 397.223 138.687 396.32 139.588C395.417 140.489 394.909 141.711 394.906 142.987V207.689C394.906 208.966 395.414 210.191 396.317 211.094C397.22 211.997 398.445 212.504 399.722 212.504C401 212.504 402.225 211.997 403.128 211.094C404.031 210.191 404.538 208.966 404.538 207.689V142.987C404.534 141.712 404.025 140.491 403.122 139.59C402.22 138.69 400.997 138.184 399.722 138.183V138.183Z" fill="#3F3D56"/>
<path d="M95.8196 35.0033H63.3122C61.7157 35.0033 60.1845 34.3691 59.0556 33.2401C57.9266 32.1112 57.2924 30.58 57.2924 28.9834C57.2924 27.3868 57.9266 25.8557 59.0556 24.7267C60.1845 23.5978 61.7157 22.9635 63.3122 22.9635H95.8196C97.4162 22.9635 98.9474 23.5978 100.076 24.7267C101.205 25.8557 101.84 27.3868 101.84 28.9834C101.84 30.58 101.205 32.1112 100.076 33.2401C98.9474 34.3691 97.4162 35.0033 95.8196 35.0033V35.0033Z" fill="#E6E6E6"/>
<path d="M284.691 637.78C275.632 638.347 270.626 627.092 277.479 620.532C277.73 619.535 277.91 618.819 278.161 617.822C278.072 617.604 277.981 617.387 277.89 617.171C268.729 595.325 250.179 607.589 228.596 617.354C210.796 625.408 192.854 635.9 207.742 676.754C210.869 685.335 207.119 695.05 209.13 703.943C190.194 662.636 180.361 617.741 180.297 572.301C180.293 560.898 180.927 549.504 182.195 538.172C183.243 528.882 184.697 519.658 186.557 510.501C194.368 472.387 209.019 436.005 229.8 403.114C227.155 403.15 224.506 403.179 221.852 403.2C217.076 410.998 212.625 418.98 208.5 427.148C209.445 419.217 209.6 411.212 208.964 403.251C176.78 403.239 144.621 402.21 116.187 400.163C117.266 487.305 149.433 505.477 188.879 463.74C189.984 464.307 191.06 464.873 192.165 465.412C182.663 492.338 176.703 520.386 174.435 548.849C173.15 565.642 173.226 582.511 174.661 599.292C174.633 599.093 174.605 598.895 174.576 598.697C170.951 580.037 160.997 563.201 146.395 551.03C124.709 533.215 94.0694 526.655 70.6732 512.335C59.411 505.442 44.9793 514.35 46.9448 527.407C46.9762 527.616 47.0081 527.824 47.0406 528.032C50.5282 529.453 53.924 531.089 57.2082 532.932C59.0876 533.993 60.9273 535.118 62.7274 536.308C72.9861 543.093 69.4407 558.996 57.2852 560.872L57.0097 560.914C56.8115 560.943 56.6416 560.971 56.4436 561C62.4027 575.228 70.7666 588.325 81.1689 599.716C84.0694 689.218 131.16 677.676 181.544 643.758H181.572C186.688 665.991 194.102 687.632 203.692 708.333H282.711C282.995 707.455 283.249 706.549 283.505 705.671C276.19 706.13 268.847 705.693 261.639 704.368C267.502 697.174 273.365 689.923 279.228 682.729C279.358 682.595 279.481 682.453 279.596 682.305C282.57 678.623 285.572 674.969 288.546 671.287L288.547 671.283C288.706 659.997 287.411 648.737 284.694 637.782L284.691 637.78Z" fill="#22577A"/>
<path d="M200.491 364.839C192.825 346.345 178.457 330.77 165.804 314.783C150.605 295.58 119.439 303.961 116.761 328.304C116.735 328.539 116.71 328.775 116.685 329.011C118.565 330.071 120.405 331.196 122.205 332.387C132.463 339.171 128.918 355.074 116.762 356.951L116.487 356.993C117.157 363.767 118.34 370.48 120.027 377.074C118.01 384.629 116.724 392.361 116.187 400.163C144.621 402.21 176.78 403.239 208.964 403.25C207.92 389.096 204.773 375.158 200.491 364.839Z" fill="#E6E6E6"/>
<path d="M283.221 341.402C286.042 335.79 288.036 329.799 289.14 323.616C287.413 323.843 282.626 297.531 283.929 295.917C281.521 292.263 277.212 290.447 274.582 286.882C261.505 269.151 243.487 272.247 234.081 296.341C213.988 306.483 213.793 323.301 226.123 339.477C233.966 349.767 235.044 363.692 241.927 374.709C241.218 375.616 240.482 376.494 239.774 377.4C232.45 386.814 225.662 396.634 219.444 406.812C222.098 406.791 224.747 406.762 227.393 406.726C233.634 396.852 240.425 387.335 247.733 378.222C263.048 369.865 275.434 357.015 283.221 341.402V341.402Z" fill="#E6E6E6"/>
<path opacity="0.1" d="M391.701 70.4518V376.912C391.701 412.249 12.4475 412.249 12.4475 376.912V70.4518C12.4672 53.4607 19.2256 37.1711 31.2401 25.1566C43.2546 13.1421 59.5441 6.38368 76.5352 6.36401H109.368V17.7055C109.368 22.84 111.408 27.7641 115.038 31.3947C118.669 35.0254 123.593 37.0652 128.728 37.0654C169.429 49.8484 219.675 47.7441 275.42 37.0654C280.555 37.0651 285.479 35.0254 289.11 31.3947C292.74 27.7641 294.78 22.84 294.78 17.7055V6.36401H327.613C344.604 6.38369 360.893 13.1421 372.908 25.1566C384.922 37.1711 391.681 53.4607 391.701 70.4518Z" fill="black"/>
<path d="M238.136 103.569H227.301C223.151 103.573 219.172 105.224 216.238 108.158C213.304 111.092 211.653 115.071 211.649 119.22V131.26H192.385C188.236 131.265 184.257 132.915 181.323 135.849C178.389 138.784 176.738 142.762 176.734 146.912V170.991C176.738 175.141 178.389 179.119 181.323 182.054C184.257 184.988 188.236 186.638 192.385 186.643H216.465C220.614 186.638 224.593 184.988 227.527 182.054C230.461 179.119 232.112 175.141 232.116 170.991V146.912C232.112 142.762 230.461 138.784 227.527 135.849C224.593 132.915 220.614 131.265 216.465 131.26H214.057V119.22C214.061 115.709 215.457 112.343 217.94 109.86C220.423 107.377 223.789 105.98 227.301 105.977H238.136C241.648 105.98 245.014 107.377 247.497 109.86C249.98 112.343 251.376 115.709 251.38 119.22V132.464H253.788V119.22C253.783 115.071 252.133 111.092 249.199 108.158C246.264 105.224 242.286 103.573 238.136 103.569V103.569ZM229.709 146.912V170.991C229.705 174.503 228.308 177.869 225.825 180.352C223.342 182.835 219.976 184.231 216.465 184.235H192.385C188.874 184.231 185.508 182.835 183.025 180.352C180.542 177.869 179.145 174.503 179.141 170.991V146.912C179.145 143.401 180.542 140.034 183.025 137.551C185.508 135.069 188.874 133.672 192.385 133.668C203.786 140.301 210.067 136.87 216.465 133.668C219.976 133.672 223.342 135.069 225.825 137.551C228.308 140.034 229.705 143.401 229.709 146.912V146.912Z" fill="white"/>
<path d="M204.425 169.787C206.568 169.787 208.663 169.152 210.445 167.961C212.227 166.771 213.616 165.078 214.436 163.098C215.256 161.118 215.471 158.94 215.053 156.838C214.635 154.736 213.602 152.805 212.087 151.289C210.572 149.774 208.641 148.742 206.539 148.324C204.437 147.906 202.258 148.12 200.278 148.941C198.298 149.761 196.606 151.15 195.415 152.932C194.225 154.713 193.589 156.808 193.589 158.952C193.593 161.824 194.735 164.579 196.767 166.61C198.798 168.641 201.552 169.784 204.425 169.787V169.787ZM204.425 156.544C209.072 156.544 212.853 154.304 212.853 158.952C212.853 161.187 211.965 163.33 210.384 164.911C208.804 166.491 206.66 167.379 204.425 167.379C202.19 167.379 200.046 166.491 198.466 164.911C196.885 163.33 195.997 161.187 195.997 158.952C195.997 154.304 199.778 156.544 204.425 156.544V156.544Z" fill="white"/>
<path d="M204.425 162.564C206.42 162.564 208.037 160.946 208.037 158.952C208.037 156.957 206.42 155.34 204.425 155.34C202.43 155.34 200.813 156.957 200.813 158.952C200.813 160.946 202.43 162.564 204.425 162.564Z" fill="white"/>
<path d="M404.538 173.399H395.858V175.807H404.538V173.399Z" fill="white"/>
<path opacity="0.1" d="M12.9926 370.915V376.935C12.9926 412.272 392.246 412.272 392.246 376.935V370.915C392.246 406.252 12.9926 406.252 12.9926 370.915Z" fill="black"/>
<path d="M347.972 457.052C350.328 456.572 352.403 455.191 353.756 453.205C355.11 451.218 355.635 448.782 355.219 446.414C355.127 445.934 354.995 445.462 354.826 445.004L379.494 424.317L373.4 408.106L342.672 440.099C340.827 440.95 339.315 442.389 338.373 444.19C337.43 445.991 337.111 448.053 337.464 450.054C337.892 452.35 339.214 454.383 341.141 455.704C343.067 457.025 345.439 457.527 347.735 457.099V457.099C347.814 457.084 347.893 457.068 347.972 457.052Z" fill="#A0616A"/>
<path d="M359.588 334.981L349.805 342.781C349.805 342.781 338.115 364.036 346.495 368.444C354.874 372.852 380.925 387.512 380.925 387.512C380.925 387.512 370.159 398.23 368.889 403.436C367.619 408.642 370.43 413.267 365.968 412.179C361.506 411.09 361.379 414.635 360.291 419.097C359.202 423.559 351.946 427.668 351.946 427.668L365.816 437.901C365.816 437.901 372.235 440.168 372.762 434.781C373.288 429.394 371.826 430.154 376.288 431.243C380.75 432.331 384.51 425.349 386.886 418.837C389.263 412.326 413.511 382.017 413.511 382.017L388.141 353.786C380.397 345.168 370.563 338.691 359.588 334.981V334.981Z" fill="#22577A"/>
<path d="M357.359 777.376L347.258 777.291L342.788 737.426L357.695 737.552L357.359 777.376Z" fill="#A0616A"/>
<path d="M325.008 793.436C324.999 794.634 325.465 795.785 326.304 796.639C327.144 797.493 328.287 797.98 329.485 797.991L349.565 798.159L353.081 791.033L354.372 798.195L361.949 798.264L360.036 772.719L357.399 772.544L346.647 771.803L343.178 771.571L343.117 778.798L326.986 789.739C326.382 790.149 325.886 790.7 325.542 791.344C325.197 791.988 325.014 792.706 325.008 793.436V793.436Z" fill="#2F2E41"/>
<path d="M264.633 777.376L254.534 777.291L250.063 737.426L264.969 737.552L264.633 777.376Z" fill="#A0616A"/>
<path d="M232.283 793.436C232.274 794.634 232.74 795.785 233.579 796.639C234.419 797.493 235.562 797.98 236.76 797.991L256.84 798.159L260.356 791.033L261.647 798.195L269.224 798.264L267.311 772.719L264.674 772.544L253.922 771.803L250.453 771.571L250.392 778.798L234.261 789.739C233.657 790.149 233.161 790.7 232.817 791.344C232.472 791.988 232.289 792.706 232.283 793.436V793.436Z" fill="#2F2E41"/>
<path d="M290.763 439.798C290.763 439.798 271.37 449.351 276.426 455.102C281.482 460.852 277.326 464.104 271.024 469.506C264.723 474.907 252.036 538.18 252.036 538.18L235.609 636.195C235.609 636.195 239.968 721.779 242.893 724.827C245.818 727.875 250.319 723.374 245.818 727.875C241.316 732.376 237.715 728.775 241.316 732.376C244.917 735.977 245.818 745.88 245.818 745.88L269.146 743.914C269.146 743.914 284.331 678.13 274.076 648.988L314.304 542.382L326.466 645.246C326.466 645.246 333.141 728.775 337.642 731.476C342.143 734.177 345.386 734.359 341.514 737.869C337.642 741.379 337.642 735.977 337.642 741.379V750.338L359.419 753.327C359.419 753.327 369.533 673.25 364.841 636.195L379.053 511.817L367.982 455.768L356.547 440.698L290.763 439.798Z" fill="#2F2E41"/>
<path d="M197.18 409.483C199.121 410.9 201.539 411.504 203.919 411.167C206.299 410.829 208.453 409.575 209.923 407.674C210.216 407.282 210.476 406.867 210.7 406.433L242.607 410.731L250.484 395.308L206.139 394.146C204.267 393.356 202.186 393.207 200.22 393.724C198.254 394.24 196.515 395.393 195.273 397.002C194.576 397.925 194.067 398.976 193.775 400.095C193.483 401.214 193.415 402.38 193.574 403.525C193.733 404.671 194.116 405.774 194.701 406.772C195.286 407.769 196.062 408.642 196.985 409.339V409.339C197.049 409.388 197.114 409.436 197.18 409.483Z" fill="#A0616A"/>
<path d="M295.228 335.844L282.874 333.868C282.874 333.868 268.045 341.964 270.431 351.127C272.817 360.289 270.774 386.999 270.774 386.999C270.774 386.999 255.6 386.26 250.897 388.828C246.194 391.396 244.669 396.589 242.468 392.558C240.267 388.527 242.588 386.388 238.556 388.589C234.525 390.79 221.574 392.628 221.574 392.628L216.368 410.355C216.368 410.355 223.601 420.301 227.938 417.062C232.274 413.822 233.127 408.996 235.328 413.027C237.529 417.058 238.143 424.572 244.557 421.942C250.97 419.313 296.784 407.382 296.784 407.382L302.322 352.03L295.228 335.844Z" fill="#22577A"/>
<path d="M283.171 453.464C283.171 453.464 274.448 439.542 276.108 437.501C277.769 435.459 279.849 438.988 276.108 435.423C272.368 431.858 293.346 408.067 294.723 404.563C296.101 401.059 273.725 339.871 273.725 339.871L292.783 328.393L308.889 305.732L337.696 310.34L347.831 330.885L362.146 335.936L363.35 337.14V374.464C363.35 374.464 369.721 406.322 355.704 417.289C355.704 417.289 362.392 431.858 360.591 434.559C358.791 437.26 391.164 472.748 365.758 476.802C337.929 481.242 278.569 451.89 283.171 453.464Z" fill="#22577A"/>
<path d="M140.292 798.567C140.291 798.756 140.328 798.942 140.399 799.116C140.471 799.29 140.577 799.448 140.71 799.582C140.843 799.715 141.001 799.82 141.175 799.892C141.349 799.964 141.536 800.001 141.724 800H446.68C447.06 800 447.424 799.849 447.693 799.58C447.962 799.312 448.113 798.947 448.113 798.567C448.113 798.187 447.962 797.823 447.693 797.554C447.424 797.286 447.06 797.135 446.68 797.135H141.724C141.536 797.134 141.349 797.171 141.175 797.242C141.001 797.314 140.843 797.42 140.71 797.553C140.577 797.686 140.471 797.844 140.399 798.018C140.328 798.192 140.291 798.379 140.292 798.567Z" fill="black"/>
<path d="M327.536 311.405C343.736 311.405 356.869 298.272 356.869 282.072C356.869 265.872 343.736 252.739 327.536 252.739C311.336 252.739 298.203 265.872 298.203 282.072C298.203 298.272 311.336 311.405 327.536 311.405Z" fill="#A0616A"/>
<path d="M350.202 260.386C349.9 257.746 348.091 254.484 346.832 252.144C345.574 249.804 343.143 247.893 340.491 248.056C339.408 248.181 338.371 248.567 337.468 249.18C336.566 249.793 335.825 250.616 335.31 251.577C334.297 253.513 333.746 255.656 333.698 257.839C333.421 262.711 334.234 267.584 336.079 272.102C337.924 276.62 340.754 280.669 344.363 283.954C346.419 285.798 348.893 287.439 351.653 287.501C352.907 287.471 354.142 287.191 355.286 286.677C356.43 286.162 357.459 285.424 358.314 284.506C362.782 280.03 363.458 272.673 361.071 266.816C358.685 260.959 357.62 258.68 352.164 255.481" fill="#2F2E41"/>
<path d="M308.995 302.574C309.486 305.184 304.973 317.595 306.415 319.832C306.415 319.832 321.349 325.019 327.059 325.391C334.035 325.843 339.645 322.981 346.17 318.674C346.288 316.337 346.964 314.063 348.142 312.042C348.043 313.607 348.361 315.171 349.064 316.574C373.499 310.504 367.517 288.576 352.759 278.302L342.948 255.737C345.891 256.718 337.006 241.559 327.636 252.537C315.912 240.597 293.2 257.786 290.354 273.141C293.092 269.675 294.519 270.084 295.221 272.474C296.028 270.463 297.307 268.677 298.949 267.264C298.132 268.878 297.715 270.665 297.732 272.473C316.226 273.621 312.784 286.098 297.626 304.788C303.231 301.299 299.449 316.335 302.442 319.93C302.589 317.418 308.465 305.017 308.995 302.574Z" fill="#2F2E41"/>
<path d="M335.684 278.544C335.92 278.543 336.149 278.457 336.327 278.302C336.506 278.147 336.622 277.932 336.654 277.698C336.687 277.463 336.634 277.225 336.505 277.027C336.375 276.829 336.179 276.684 335.952 276.619C335.741 275.411 335.718 274.179 335.884 272.964C336.203 267.545 336.738 258.474 327.932 252.352C327.718 252.204 327.455 252.147 327.199 252.194C326.944 252.24 326.717 252.386 326.569 252.599C326.421 252.812 326.363 253.075 326.409 253.331C326.454 253.586 326.599 253.813 326.812 253.962C334.714 259.457 334.24 267.517 333.926 272.849C333.746 275.898 333.617 278.1 335.466 278.519C335.537 278.535 335.61 278.544 335.684 278.544V278.544Z" fill="#22577A"/>
<path d="M335.227 257.101C341.215 254.615 347.593 253.202 354.07 252.924C359.208 252.707 365.338 253.852 367.426 258.552C368.693 261.402 368.018 264.744 366.859 267.64C365.7 270.536 360.284 276.383 363.403 276.32C371.237 276.159 374.581 283.165 370.607 294.05C368.302 300.363 382.603 300.12 389.27 300.965C384.261 302.824 379.175 304.7 373.851 305.146C368.526 305.591 362.84 304.434 358.865 300.864C354.563 297.001 352.91 291.001 352.178 285.266C351.447 279.53 351.409 273.624 349.465 268.179C347.52 262.733 343.054 257.662 337.293 257.179" fill="#2F2E41"/>
</g>
<defs>
<clipPath id="clip0_5_291">
<rect width="448.113" height="800" fill="white"/>
</clipPath>
</defs>
</svg>
