<svg width="864" height="750" viewBox="0 0 864 750" fill="none" xmlns="http://www.w3.org/2000/svg">
<g clip-path="url(#clip0_11_229)">
<path opacity="0.5" d="M839.768 346.071H568.089C566.324 346.068 564.63 344.923 563.382 342.887C562.133 340.85 561.431 338.09 561.429 335.21V257.29C561.431 254.41 562.133 251.649 563.382 249.613C564.631 247.577 566.324 246.432 568.089 246.429H839.768C841.534 246.432 843.227 247.577 844.476 249.613C845.724 251.649 846.427 254.41 846.429 257.29V335.21C846.427 338.09 845.724 340.85 844.476 342.887C843.227 344.923 841.534 346.068 839.768 346.071Z" fill="#6C63FF"/>
<path d="M292.66 676.035L294.003 645.826C308.009 638.34 323.63 634.386 339.511 634.307C317.654 652.176 320.386 686.622 305.567 710.652C300.888 718.112 294.591 724.422 287.141 729.117C279.691 733.812 271.281 736.77 262.532 737.772L244.242 748.971C241.732 734.979 242.286 720.61 245.864 706.853C249.442 693.096 255.96 680.278 264.969 669.283C270.085 663.164 275.95 657.715 282.427 653.062C286.807 664.613 292.66 676.035 292.66 676.035Z" fill="#F2F2F2"/>
<path d="M711.236 156.429H296.988C294.947 156.429 292.989 157.573 291.545 159.61C290.101 161.646 289.288 164.409 289.286 167.292V443.409C289.288 446.293 290.1 449.058 291.544 451.097C292.988 453.136 294.946 454.283 296.988 454.286H711.236C713.276 454.28 715.232 453.132 716.674 451.093C718.116 449.054 718.927 446.291 718.928 443.409V167.292C718.926 164.411 718.115 161.65 716.673 159.614C715.231 157.577 713.275 156.432 711.236 156.429Z" fill="#3F3D56"/>
<path d="M571.137 246.429C568.563 246.432 566.095 247.576 564.275 249.611C562.455 251.645 561.431 254.404 561.429 257.282V335.205C561.431 338.084 562.454 340.844 564.274 342.881C566.094 344.918 568.562 346.065 571.137 346.071H718.929V246.429H571.137Z" fill="#6C63FF"/>
<path d="M639.853 318.864C649.587 318.864 657.478 310.973 657.478 301.238C657.478 291.504 649.587 283.613 639.853 283.613C630.118 283.613 622.227 291.504 622.227 301.238C622.227 310.973 630.118 318.864 639.853 318.864Z" fill="white"/>
<path d="M818.561 295.714H687.868C687.297 295.714 686.749 295.206 686.345 294.302C685.941 293.398 685.714 292.172 685.714 290.893C685.714 289.614 685.941 288.388 686.345 287.484C686.749 286.579 687.297 286.071 687.868 286.071H818.561C819.132 286.071 819.68 286.579 820.083 287.484C820.487 288.388 820.714 289.614 820.714 290.893C820.714 292.172 820.487 293.398 820.083 294.302C819.68 295.206 819.132 295.714 818.561 295.714Z" fill="white"/>
<path d="M758.822 317.143H687.607C687.105 317.143 686.624 316.578 686.269 315.574C685.914 314.569 685.714 313.207 685.714 311.786C685.714 310.365 685.914 309.002 686.269 307.998C686.624 306.993 687.105 306.429 687.607 306.429H758.822C759.324 306.429 759.805 306.993 760.16 307.998C760.515 309.002 760.714 310.365 760.714 311.786C760.714 313.207 760.515 314.569 760.16 315.574C759.805 316.578 759.324 317.143 758.822 317.143Z" fill="white"/>
<path d="M203.877 734.598L219.131 734.597L226.387 675.761H203.874L203.877 734.598Z" fill="#FFB6B6"/>
<path d="M199.987 729.617L204.28 729.617L221.042 722.8L230.027 729.616H230.028C235.105 729.616 239.974 731.633 243.564 735.223C247.154 738.813 249.171 743.682 249.172 748.759V749.382L199.987 749.383L199.987 729.617Z" fill="#2F2E41"/>
<path d="M66.05 714.766L79.7028 721.57L112.443 672.15L92.2945 662.107L66.05 714.766Z" fill="#FFB6B6"/>
<path d="M64.7896 708.573L68.6323 710.488L86.6754 711.864L91.6756 721.972L91.6766 721.973C96.2205 724.238 99.6785 728.215 101.29 733.03C102.902 737.844 102.535 743.102 100.27 747.646L99.9927 748.203L55.9728 726.263L64.7896 708.573Z" fill="#2F2E41"/>
<path d="M210.636 467.386L113.649 469.916L115.335 517.145C115.335 517.145 113.648 529.795 117.022 533.169C120.395 536.542 122.082 536.542 120.395 542.446C118.709 548.349 114.348 604.756 114.348 604.756C114.348 604.756 74.5417 675.14 76.2285 676.827C77.9152 678.514 79.6019 676.827 77.9152 681.044C76.2285 685.261 74.5417 683.574 76.2285 685.261C77.7226 686.872 79.1302 688.561 80.4453 690.321H107.936C107.936 690.321 109.473 681.887 109.473 681.044C109.473 680.2 111.16 675.14 111.16 674.297C111.16 673.454 159.19 622.565 159.19 622.565L169.311 538.229L193.768 620.879C193.768 620.879 193.768 693.408 195.455 695.095C197.142 696.782 197.142 695.938 196.299 699.312C195.455 702.685 192.082 701.842 194.612 704.372C197.142 706.902 197.985 702.685 197.142 706.902L196.299 711.119L228.7 711.481C228.7 711.481 232.073 704.372 230.387 701.842C228.7 699.312 228.801 700.003 230.859 695.862C232.917 691.722 233.76 690.878 232.917 690.035C232.073 689.191 232.073 684.706 232.073 684.706C232.073 684.706 219.913 518.831 219.913 516.301C219.849 514.999 220.089 513.7 220.613 512.507V509.073L217.383 496.904L210.636 467.386Z" fill="#2F2E41"/>
<path d="M603.101 389.44H461.699C458.818 389.443 456.056 390.589 454.019 392.627C451.982 394.664 450.836 397.426 450.833 400.307V453.981H613.955V400.307C613.952 397.428 612.808 394.668 610.774 392.631C608.739 390.594 605.98 389.446 603.101 389.44Z" fill="#6C63FF"/>
<path opacity="0.5" d="M603.097 540.255H461.694C458.815 540.252 456.054 539.106 454.017 537.07C451.981 535.034 450.836 532.273 450.833 529.393V400.302C450.836 397.422 451.981 394.661 454.018 392.625C456.054 390.589 458.815 389.444 461.694 389.44H603.097C605.976 389.444 608.737 390.589 610.773 392.625C612.81 394.661 613.955 397.422 613.958 400.302V529.393C613.955 532.273 612.81 535.034 610.773 537.07C608.737 539.106 605.976 540.252 603.097 540.255Z" fill="#6C63FF"/>
<path d="M503.355 450.629C513.09 450.629 520.981 442.738 520.981 433.003C520.981 423.269 513.09 415.378 503.355 415.378C493.621 415.378 485.729 423.269 485.729 433.003C485.729 442.738 493.621 450.629 503.355 450.629Z" fill="white"/>
<path d="M573.811 477.419H490.978C489.586 477.419 488.251 476.866 487.267 475.882C486.283 474.897 485.73 473.562 485.73 472.17C485.73 470.778 486.283 469.443 487.267 468.459C488.251 467.475 489.586 466.922 490.978 466.922H573.811C575.203 466.922 576.538 467.475 577.522 468.459C578.506 469.443 579.059 470.778 579.059 472.17C579.059 473.562 578.506 474.897 577.522 475.882C576.538 476.866 575.203 477.419 573.811 477.419Z" fill="white"/>
<path d="M530.949 498.159H490.978C489.586 498.159 488.251 497.605 487.267 496.621C486.282 495.637 485.729 494.302 485.729 492.91C485.729 491.518 486.282 490.183 487.267 489.198C488.251 488.214 489.586 487.661 490.978 487.661H530.949C532.341 487.661 533.676 488.214 534.661 489.198C535.645 490.183 536.198 491.518 536.198 492.91C536.198 494.302 535.645 495.637 534.661 496.621C533.676 497.605 532.341 498.159 530.949 498.159Z" fill="white"/>
<path d="M458.746 578.142C451.386 578.142 444.19 575.959 438.07 571.87C431.95 567.781 427.18 561.968 424.363 555.168C421.546 548.368 420.809 540.885 422.245 533.665C423.681 526.446 427.226 519.815 432.43 514.61C437.635 509.405 444.266 505.861 451.486 504.425C458.705 502.989 466.188 503.726 472.988 506.543C479.789 509.359 485.601 514.13 489.69 520.25C493.78 526.37 495.962 533.565 495.962 540.926C495.962 550.796 492.041 560.262 485.062 567.242C478.083 574.221 468.617 578.142 458.746 578.142Z" fill="#6C63FF"/>
<path d="M473.431 537.255H462.417V526.241C462.417 525.268 462.031 524.334 461.342 523.645C460.654 522.957 459.72 522.57 458.746 522.57C457.772 522.57 456.839 522.957 456.15 523.645C455.462 524.334 455.075 525.268 455.075 526.241V537.255H444.061C443.579 537.254 443.101 537.348 442.654 537.532C442.208 537.716 441.803 537.987 441.461 538.328C441.119 538.669 440.848 539.074 440.663 539.52C440.479 539.965 440.383 540.443 440.383 540.926C440.383 541.409 440.479 541.887 440.663 542.333C440.848 542.778 441.119 543.183 441.461 543.524C441.803 543.865 442.208 544.136 442.654 544.32C443.101 544.504 443.579 544.598 444.061 544.597H455.075V555.611C455.075 556.584 455.462 557.518 456.15 558.207C456.839 558.895 457.772 559.282 458.746 559.282C459.72 559.282 460.654 558.895 461.342 558.207C462.031 557.518 462.417 556.584 462.417 555.611V544.597H473.431C474.404 544.597 475.338 544.21 476.027 543.522C476.715 542.833 477.102 541.9 477.102 540.926C477.102 539.952 476.715 539.019 476.027 538.33C475.338 537.642 474.404 537.255 473.431 537.255Z" fill="white"/>
<path d="M441.519 307.374H300.117C297.237 307.371 294.476 306.225 292.44 304.189C290.404 302.153 289.258 299.392 289.255 296.512V167.421C289.258 164.541 290.404 161.781 292.44 159.744C294.476 157.708 297.237 156.563 300.117 156.56H441.519C444.399 156.563 447.16 157.708 449.196 159.744C451.232 161.781 452.378 164.541 452.381 167.421V296.512C452.378 299.392 451.232 302.153 449.196 304.189C447.16 306.225 444.399 307.371 441.519 307.374Z" fill="#6C63FF"/>
<path d="M341.778 228.521C351.513 228.521 359.404 220.63 359.404 210.895C359.404 201.161 351.513 193.27 341.778 193.27C332.044 193.27 324.153 201.161 324.153 210.895C324.153 220.63 332.044 228.521 341.778 228.521Z" fill="#6C63FF"/>
<path d="M412.234 249.925H329.402C328.01 249.925 326.675 249.372 325.691 248.387C324.706 247.403 324.153 246.068 324.153 244.676C324.153 243.284 324.706 241.949 325.691 240.965C326.675 239.98 328.01 239.427 329.402 239.427H412.234C413.626 239.427 414.961 239.98 415.946 240.965C416.93 241.949 417.483 243.284 417.483 244.676C417.483 246.068 416.93 247.403 415.946 248.387C414.961 249.372 413.626 249.925 412.234 249.925Z" fill="#6C63FF"/>
<path d="M369.372 270.664H329.402C328.01 270.664 326.675 270.111 325.69 269.127C324.706 268.143 324.153 266.808 324.153 265.415C324.153 264.023 324.706 262.688 325.69 261.704C326.675 260.72 328.01 260.167 329.402 260.167H369.372C370.765 260.167 372.1 260.72 373.084 261.704C374.068 262.688 374.621 264.023 374.621 265.415C374.621 266.808 374.068 268.143 373.084 269.127C372.1 270.111 370.765 270.664 369.372 270.664Z" fill="#6C63FF"/>
<path opacity="0.5" d="M441.519 307.374H300.117C297.237 307.371 294.476 306.225 292.44 304.189C290.404 302.153 289.258 299.392 289.255 296.512V167.421C289.258 164.541 290.404 161.781 292.44 159.744C294.476 157.708 297.237 156.563 300.117 156.56H441.519C444.399 156.563 447.16 157.708 449.196 159.744C451.232 161.781 452.378 164.541 452.381 167.421V296.512C452.378 299.392 451.232 302.153 449.196 304.189C447.16 306.225 444.399 307.371 441.519 307.374Z" fill="#6C63FF"/>
<path d="M341.778 228.521C351.513 228.521 359.404 220.63 359.404 210.895C359.404 201.161 351.513 193.27 341.778 193.27C332.044 193.27 324.153 201.161 324.153 210.895C324.153 220.63 332.044 228.521 341.778 228.521Z" fill="white"/>
<path d="M412.234 249.925H329.402C328.01 249.925 326.675 249.372 325.691 248.387C324.706 247.403 324.153 246.068 324.153 244.676C324.153 243.284 324.706 241.949 325.691 240.965C326.675 239.98 328.01 239.427 329.402 239.427H412.234C413.626 239.427 414.961 239.98 415.946 240.965C416.93 241.949 417.483 243.284 417.483 244.676C417.483 246.068 416.93 247.403 415.946 248.387C414.961 249.372 413.626 249.925 412.234 249.925Z" fill="white"/>
<path d="M369.372 270.664H329.402C328.01 270.664 326.675 270.111 325.69 269.127C324.706 268.143 324.153 266.808 324.153 265.415C324.153 264.023 324.706 262.688 325.69 261.704C326.675 260.72 328.01 260.167 329.402 260.167H369.372C370.765 260.167 372.1 260.72 373.084 261.704C374.068 262.688 374.621 264.023 374.621 265.415C374.621 266.808 374.068 268.143 373.084 269.127C372.1 270.111 370.765 270.664 369.372 270.664Z" fill="white"/>
<path d="M303.034 184.413C318.651 184.413 331.312 171.753 331.312 156.136C331.312 140.518 318.651 127.858 303.034 127.858C287.417 127.858 274.756 140.518 274.756 156.136C274.756 171.753 287.417 184.413 303.034 184.413Z" fill="#FF6584"/>
<path d="M380.632 748.398C380.633 748.608 380.592 748.817 380.511 749.012C380.431 749.206 380.313 749.383 380.164 749.532C380.015 749.681 379.838 749.799 379.643 749.879C379.449 749.96 379.24 750.001 379.029 750H1.60241C1.17742 750 0.769841 749.831 0.469331 749.531C0.168822 749.23 0 748.823 0 748.398C0 747.973 0.168822 747.565 0.469331 747.265C0.769841 746.964 1.17742 746.795 1.60241 746.795H379.029C379.24 746.795 379.449 746.836 379.643 746.916C379.838 746.996 380.015 747.114 380.164 747.263C380.313 747.412 380.431 747.589 380.511 747.784C380.591 747.978 380.633 748.187 380.632 748.398Z" fill="black"/>
<path d="M296.99 231.037C298.153 234.288 297.991 237.865 296.541 240.997C295.09 244.129 292.466 246.566 289.236 247.782C288.521 248.049 287.784 248.252 287.033 248.389L279.565 294.117L262.046 277.942L271.824 236.997C271.462 233.547 272.473 230.093 274.637 227.382C276.801 224.671 279.946 222.92 283.391 222.509C286.289 222.177 289.214 222.84 291.685 224.39C294.156 225.94 296.027 228.284 296.99 231.037L296.99 231.037Z" fill="#FFB6B6"/>
<path d="M167.701 334.653C167.701 334.653 181.298 316.688 230.638 317.18L258.643 307.004L265.043 248.335L287.445 253.668L284.244 326.205L236.242 353.94L173.305 366.741L167.701 334.653Z" fill="#3F3D56"/>
<path d="M160.477 297.226C176.65 297.226 189.761 284.115 189.761 267.942C189.761 251.769 176.65 238.658 160.477 238.658C144.303 238.658 131.192 251.769 131.192 267.942C131.192 284.115 144.303 297.226 160.477 297.226Z" fill="#FFB6B6"/>
<path d="M110.912 489.983C110.86 489.983 110.809 489.976 110.759 489.962C110.218 489.811 109.791 489.692 111.742 472.821L113.848 459.485L111.792 447.71L108.334 444.252L113.892 438.695L118.555 425.447L110.486 413.49L101.227 364.588C99.6358 356.149 100.873 347.422 104.746 339.758C108.62 332.094 114.914 325.922 122.652 322.2L133.368 319.069L137.266 311.919C138.361 309.911 139.973 308.233 141.935 307.058C143.897 305.883 146.138 305.255 148.425 305.237L168.048 305.091C170.028 305.076 171.984 305.52 173.763 306.388C175.543 307.256 177.097 308.524 178.304 310.093L185.15 318.993L213.539 328.636L208.832 430.061C209.58 430.687 210.19 431.461 210.623 432.334C211.056 433.208 211.303 434.162 211.348 435.136C211.394 436.11 211.237 437.082 210.887 437.993C210.537 438.903 210.002 439.73 209.316 440.423C209.021 440.721 208.786 440.963 208.642 441.123C208.163 441.803 209.061 446.879 210.17 451.189L211.592 457.789C211.135 458.115 210.752 458.533 210.465 459.015C210.178 459.496 209.994 460.033 209.924 460.589C209.855 461.146 209.902 461.71 210.062 462.248C210.222 462.786 210.492 463.284 210.854 463.712L212.667 465.854C213.026 468.539 212.304 471.257 210.662 473.412C209.019 475.566 206.589 476.981 203.905 477.347C177.96 480.878 111.048 489.983 110.912 489.983Z" fill="#3F3D56"/>
<path d="M152.985 295.792C152.86 295.517 152.735 295.24 152.611 294.963C152.659 294.965 152.706 294.972 152.754 294.973L152.985 295.792Z" fill="#2F2E41"/>
<path d="M130.378 239.989C131.768 238.678 133.576 237.896 135.484 237.782C137.377 237.843 139.298 239.553 138.905 241.407C142.384 235.248 147.92 230.512 154.543 228.028C161.165 225.545 168.451 225.474 175.121 227.827C179.827 229.487 184.443 232.809 185.524 237.682C185.629 238.961 186.011 240.202 186.642 241.32C187.189 241.917 187.899 242.341 188.684 242.54C189.47 242.739 190.296 242.704 191.062 242.439L191.108 242.426C191.37 242.336 191.653 242.327 191.92 242.4C192.187 242.473 192.426 242.625 192.606 242.835C192.787 243.046 192.899 243.305 192.93 243.58C192.961 243.856 192.909 244.134 192.78 244.379L191.448 246.862C193.127 247.237 194.871 247.199 196.533 246.754C196.809 246.682 197.1 246.697 197.367 246.797C197.635 246.897 197.864 247.077 198.025 247.312C198.186 247.548 198.27 247.828 198.266 248.113C198.261 248.398 198.169 248.675 198.001 248.906C195.788 251.933 192.898 254.403 189.563 256.117C186.227 257.832 182.537 258.744 178.787 258.782C173.466 258.749 168.091 256.915 162.912 258.139C160.909 258.612 159.037 259.528 157.434 260.819C155.831 262.111 154.537 263.744 153.648 265.601C152.758 267.457 152.296 269.489 152.294 271.547C152.292 273.606 152.751 275.639 153.638 277.497C152.047 275.757 148.972 276.168 147.344 277.875C146.595 278.788 146.041 279.845 145.717 280.981C145.393 282.117 145.305 283.308 145.46 284.479C145.894 288.066 146.959 291.548 148.606 294.765C142.314 294.571 136.233 292.451 131.184 288.691C126.135 284.931 122.362 279.712 120.375 273.739C118.387 267.766 118.28 261.327 120.069 255.291C121.858 249.256 125.457 243.915 130.378 239.989L130.378 239.989Z" fill="#2F2E41"/>
<path d="M122.321 531.983C119.521 529.963 117.627 526.925 117.047 523.522C116.467 520.119 117.248 516.624 119.221 513.792C119.658 513.167 120.15 512.582 120.691 512.044L100.93 470.135L124.531 473.534L139.678 512.81C141.932 515.448 143.056 518.867 142.81 522.327C142.563 525.787 140.964 529.011 138.359 531.302C136.159 533.218 133.373 534.33 130.459 534.453C127.545 534.577 124.675 533.706 122.321 531.983H122.321Z" fill="#FFB6B6"/>
<path d="M116.336 509.099L84.8915 438.427L84.5765 382.61L94.4887 352.46C95.8334 348.37 97.9846 344.59 100.815 341.345C103.645 338.1 107.097 335.456 110.967 333.568C114.837 331.679 119.046 330.586 123.346 330.353C127.645 330.119 131.948 330.75 136 332.208L136.218 332.286L136.309 332.5C136.676 333.355 144.989 353.918 120.33 396.222L115.367 425.168L132.781 491.518L116.336 509.099Z" fill="#3F3D56"/>
</g>
<defs>
<clipPath id="clip0_11_229">
<rect width="1208.29" height="750" fill="white"/>
</clipPath>
</defs>
</svg>
